<?xml version="1.0" standalone="no"?>
<!DOCTYPE svg PUBLIC "-//W3C//DTD SVG 20010904//EN"
 "http://www.w3.org/TR/2001/REC-SVG-20010904/DTD/svg10.dtd">
<svg version="1.0" xmlns="http://www.w3.org/2000/svg"
 width="100.000000pt" height="100.000000pt" viewBox="0 0 100.000000 100.000000"
 preserveAspectRatio="xMidYMid meet">

<g transform="translate(0.000000,100.000000) scale(0.100000,-0.100000)"
fill="#000000" stroke="none">
<path d="M484 907 c-3 -8 -4 -43 -2 -78 2 -49 7 -64 18 -64 12 0 15 15 15 74
0 51 -4 76 -12 78 -7 3 -15 -2 -19 -10z"/>
<path d="M200 787 c0 -16 91 -107 108 -107 24 0 11 27 -36 73 -48 47 -72 58
-72 34z"/>
<path d="M727 752 c-47 -48 -58 -72 -34 -72 16 0 107 91 107 108 0 24 -27 11
-73 -36z"/>
<path d="M430 687 c-78 -25 -140 -129 -127 -212 14 -87 65 -144 150 -166 147
-40 279 98 237 248 -31 107 -147 166 -260 130z"/>
<path d="M85 510 c-14 -22 12 -31 81 -28 53 2 69 6 69 18 0 12 -16 16 -72 18
-45 2 -74 -1 -78 -8z"/>
<path d="M765 510 c-14 -22 12 -31 81 -28 53 2 69 6 69 18 0 12 -16 16 -72 18
-45 2 -74 -1 -78 -8z"/>
<path d="M247 272 c-47 -48 -58 -72 -34 -72 16 0 107 91 107 108 0 24 -27 11
-73 -36z"/>
<path d="M680 307 c0 -16 91 -107 108 -107 24 0 11 27 -36 73 -48 47 -72 58
-72 34z"/>
<path d="M484 227 c-3 -8 -4 -43 -2 -78 2 -49 7 -64 18 -64 12 0 15 15 15 74
0 51 -4 76 -12 78 -7 3 -15 -2 -19 -10z"/>
</g>
</svg>
